<svg height="512pt" viewBox="0 0 512 512" width="512pt" xmlns="http://www.w3.org/2000/svg"><path d="m422 0c-41.355469 0-75 33.644531-75 75v60c0 20.027344-13.15625 37.035156-31.273438 42.851562.179688 1.878907.273438 3.777344.273438 5.679688v71.507812c12.542969-9.4375 28.128906-15.039062 45-15.039062h91c33.085938 0 60-26.914062 60-60h-75v-30h75v-30h-75v-30h75v-30h-75v-30h75v-30zm0 0"/><path d="m196 255.039062v-71.507812c0-1.902344.097656-3.800781.273438-5.679688-18.117188-5.816406-31.273438-22.824218-31.273438-42.851562v-60c0-41.355469-33.644531-75-75-75h-90v30h75v30h-75v30h75v30h-75v30h75v30h-75c0 33.085938 26.914062 60 60 60h91c16.871094 0 32.457031 5.601562 45 15.039062zm0 0"/><path d="m151 270h-104.492188c6.96875 34.191406 37.273438 60 73.492188 60h77.898438c-1.238282-4.796875-1.898438-9.820312-1.898438-15 0-24.8125-20.1875-45-45-45zm0 0"/><path d="m361 270c-24.8125 0-45 20.1875-45 45 0 5.179688-.660156 10.203125-1.898438 15h77.898438c36.21875 0 66.523438-25.808594 73.492188-60zm0 0"/><path d="m146 466.398438c60.800781 60.800781 159.199219 60.800781 220 0l-78.179688-78.21875c-8.140624-8.144532-19.394531-13.179688-31.820312-13.179688s-23.675781 5.035156-31.820312 13.179688zm0 0"/><path d="m286 183.53125c0-8.515625-3.648438-16.664062-10.003906-22.355469l-4.996094-4.472656v-51.703125c0-8.269531-6.730469-15-15-15s-15 6.730469-15 15v51.703125l-4.996094 4.472656c-6.355468 5.691407-10.003906 13.839844-10.003906 22.355469v131.46875c0 16.542969 13.457031 30 30 30s30-13.457031 30-30zm0 0"/></svg>