<?xml version="1.0" encoding="iso-8859-1"?>
<!-- Generator: Adobe Illustrator 18.0.0, SVG Export Plug-In . SVG Version: 6.00 Build 0)  -->
<!DOCTYPE svg PUBLIC "-//W3C//DTD SVG 1.1//EN" "http://www.w3.org/Graphics/SVG/1.1/DTD/svg11.dtd">
<svg version="1.1" id="Capa_1" xmlns="http://www.w3.org/2000/svg" xmlns:xlink="http://www.w3.org/1999/xlink" x="0px" y="0px"
	 viewBox="0 0 135.001 135.001" style="enable-background:new 0 0 135.001 135.001;" xml:space="preserve">
<g>
	<circle style="fill:#FF6F00;" cx="67.5" cy="67.501" r="67.5"/>
	<g>
		<g>
			<path style="fill:#FED820;" d="M32.294,61.836l4.542,34.379c0.449,3.407,3.354,5.953,6.791,5.953h48.405
				c3.438,0,6.342-2.546,6.791-5.953l4.542-34.379H32.294z M41.229,95.289L38.23,65.318h5.647l2.999,29.971H41.229z M57.967,95.098
				h-5.614V65.352h5.614V95.098z M70.637,95.098h-5.613V65.352h5.613V95.098z M83.972,95.098h-5.613V65.352h5.613V95.098z
				 M95.291,95.289h-5.638l2.585-29.971h5.639L95.291,95.289z"/>
			<polygon style="fill:#FED820;" points="103.132,63.602 103.366,61.836 32.294,61.836 32.528,63.602 			"/>
			<path style="fill:#FEC820;" d="M105.38,61.836H30.28c-2.102,0-3.806-1.401-3.806-3.131v-3.807c0-1.729,1.704-3.13,3.806-3.13
				h75.101c2.102,0,3.806,1.401,3.806,3.13v3.807C109.186,60.435,107.482,61.836,105.38,61.836z"/>
			<g>
				<g>
					<path style="fill:#2EBCEE;" d="M42.076,58c-0.518,0-1.038-0.175-1.467-0.535c-0.966-0.81-1.091-2.251-0.279-3.217l20.551-24.46
						c0.812-0.966,2.253-1.091,3.218-0.279c0.965,0.811,1.091,2.252,0.279,3.217l-20.552,24.46C43.374,57.723,42.727,58,42.076,58z"
						/>
					<path style="fill:#2EBCEE;" d="M94.248,58c-0.651,0-1.298-0.276-1.749-0.814l-20.551-24.46
						c-0.812-0.965-0.687-2.405,0.279-3.217c0.965-0.811,2.406-0.687,3.218,0.279l20.55,24.46c0.812,0.966,0.687,2.406-0.278,3.217
						C95.289,57.825,94.767,58,94.248,58z"/>
				</g>
			</g>
		</g>
		<g>
			<g>
				<path style="fill:#FEC80D;" d="M67.794,95.098h-2.77V65.352h2.77v-3.516H32.294l4.542,34.379
					c0.449,3.407,3.354,5.953,6.791,5.953h24.166V95.098z M41.229,95.289L38.23,65.318h5.647l2.999,29.971H41.229z M57.967,95.098
					h-5.614V65.352h5.614V95.098z"/>
			</g>
			<g>
				<polygon style="fill:#FEC80D;" points="67.794,61.836 32.294,61.836 32.528,63.602 67.794,63.602 				"/>
			</g>
			<g>
				<path style="fill:#FEB30D;" d="M67.794,51.769H30.28c-2.102,0-3.806,1.401-3.806,3.13v3.807c0,1.729,1.704,3.131,3.806,3.131
					h37.514V51.769z"/>
			</g>
			<g>
				<path style="fill:#15A4E7;" d="M42.076,58c-0.518,0-1.038-0.175-1.467-0.535c-0.966-0.81-1.091-2.251-0.279-3.217l20.551-24.46
					c0.812-0.966,2.253-1.091,3.218-0.279c0.965,0.811,1.091,2.252,0.279,3.217l-20.552,24.46C43.374,57.723,42.727,58,42.076,58z"
					/>
			</g>
		</g>
	</g>
</g>
<g>
</g>
<g>
</g>
<g>
</g>
<g>
</g>
<g>
</g>
<g>
</g>
<g>
</g>
<g>
</g>
<g>
</g>
<g>
</g>
<g>
</g>
<g>
</g>
<g>
</g>
<g>
</g>
<g>
</g>
</svg>
